<svg xmlns="http://www.w3.org/2000/svg" width="35.304" height="50" viewBox="0 0 35.304 50"><path fill="#FFF" d="M19.724 24.429v-3.914a2.05 2.05 0 0 0-.208-.898h2.004c3.89 0 7.882-3.78 9.088-8.606l.35-1.4c.628-2.512.169-5.002-1.259-6.832C28.3.987 26.168 0 23.695 0H11.609C9.136 0 7.003.987 5.604 2.78 4.176 4.609 3.718 7.099 4.346 9.61l.35 1.402c1.207 4.825 5.198 8.605 9.088 8.605h2.004a2.064 2.064 0 0 0-.207.898v3.914c-6.781.408-13.055 2.825-13.055 7.087s6.274 6.678 13.055 7.087v2.981c-4.631.5-8.436 2.653-9.604 5.575A2.076 2.076 0 0 0 7.902 50a2.06 2.06 0 0 0 1.923-1.304c.511-1.279 3.276-3.08 7.826-3.08s7.315 1.801 7.826 3.08A2.065 2.065 0 0 0 27.403 50a2.075 2.075 0 0 0 1.924-2.84c-1.167-2.922-4.973-5.074-9.603-5.575v-2.982c6.782-.409 13.055-2.826 13.055-7.086 0-4.263-6.273-6.679-13.055-7.088zm-5.94-8.956c-1.971 0-4.339-2.555-5.067-5.466l-.35-1.401c-.322-1.285-.143-2.448.504-3.276.597-.765 1.569-1.186 2.738-1.186h12.086c1.169 0 2.141.421 2.738 1.186.647.828.826 1.991.505 3.276l-.35 1.399c-.729 2.912-3.097 5.467-5.068 5.467h-7.736zm12.105 17.796c-2.208.808-5.134 1.252-8.238 1.252-3.104 0-6.029-.444-8.237-1.252-2.198-.804-2.731-1.601-2.745-1.75.014-.154.546-.952 2.745-1.756 2.208-.807 5.133-1.252 8.236-1.252 3.104 0 6.03.445 8.238 1.252 2.199.804 2.732 1.601 2.746 1.751-.013.153-.546.951-2.745 1.755zM2.072 26.805A2.075 2.075 0 0 1 0 24.732v-4.829c0-1.143.929-2.072 2.072-2.072s2.072.929 2.072 2.072v4.829c0 1.143-.93 2.073-2.072 2.073zm33.232-6.901v4.829a2.073 2.073 0 0 1-2.071 2.072 2.074 2.074 0 0 1-2.072-2.072v-4.829c0-1.143.93-2.072 2.072-2.072s2.071.929 2.071 2.072z"/></svg>