<svg xmlns="http://www.w3.org/2000/svg" width="34.357" height="52" viewBox="0 0 34.357 52"><path fill="#FFF" d="M22.095 22.509a15.47 15.47 0 0 0-2.935-2.311 3.211 3.211 0 0 0-3.314 0 15.565 15.565 0 0 0-2.935 2.311 15.648 15.648 0 0 0-2.312 2.934 3.215 3.215 0 0 0 0 3.316 15.575 15.575 0 0 0 2.312 2.934c.927.926 1.921 1.7 2.935 2.313 1.018.613 2.3.613 3.315 0a15.478 15.478 0 0 0 2.934-2.313 15.575 15.575 0 0 0 2.312-2.934 3.209 3.209 0 0 0 0-3.315 15.58 15.58 0 0 0-2.312-2.935zm-3.245 2.224l-1.186 1.185-1.186 1.186 1.186 1.186 1.186 1.185v2.371l-1.186-1.186-1.186-1.186-1.186-1.185-1.185-1.186 1.185-1.186 1.186-1.185 1.186-1.186 1.186-1.186v2.373zm15.225-12.726a1.81 1.81 0 0 0-1.69-1.168 3.613 3.613 0 0 1-3.608-3.609 3.613 3.613 0 0 1 3.608-3.61c.998 0 1.811-.812 1.811-1.81S33.383 0 32.385 0c-.182 0-.361.009-.539.022a1.844 1.844 0 0 0-.27-.022H7.311C3.712 0 .715 2.614.111 6.042c-.07.194-.111.403-.111.622v35.268c0 .998.812 1.81 1.81 1.81h5.089v5.749H6.9v2.463c.297-.228.793-.643 1-.851.713-.713 2.398-2.398 3.354-3.343.598-.592.754-.585 1.351.011L16.92 52v-8.258h15.628c.998 0 1.81-.812 1.81-1.81V12.974a1.796 1.796 0 0 0-.283-.967zM3.619 13.618a7.264 7.264 0 0 0 3.691 1.003h23.428v25.5H3.619V13.618zM7.311 3.62h18.814a7.188 7.188 0 0 0-.969 3.61 7.19 7.19 0 0 0 1.064 3.771H7.311a3.695 3.695 0 0 1-3.691-3.69A3.694 3.694 0 0 1 7.311 3.62z"/></svg>