<svg xmlns="http://www.w3.org/2000/svg" width="50.687" height="48" viewBox="0 0 50.687 48"><path fill="#FFF" d="M34.601 6.149V2.048a2.05 2.05 0 0 1 4.099 0V6.15a2.048 2.048 0 1 1-4.099-.001zM14.037 8.197a2.048 2.048 0 0 0 2.049-2.048V2.048a2.05 2.05 0 0 0-4.098 0V6.15a2.049 2.049 0 0 0 2.049 2.047zm29.881 6.938a2.29 2.29 0 0 0-2.29-2.29H9.059a2.29 2.29 0 1 0 0 4.581h32.569a2.291 2.291 0 0 0 2.29-2.291zM20.519 6.667h9.649a2.29 2.29 0 1 0 0-4.581h-9.649a2.29 2.29 0 1 0 0 4.581zm27.878-4.581h-5.129a2.29 2.29 0 1 0 0 4.581h2.838v36.752H4.581V6.667H7.21a2.29 2.29 0 1 0 0-4.581H2.291A2.29 2.29 0 0 0 0 4.377V45.71A2.29 2.29 0 0 0 2.291 48h46.106a2.29 2.29 0 0 0 2.29-2.29V4.377a2.29 2.29 0 0 0-2.29-2.291zM31.383 24.503a20.54 20.54 0 0 1 3.041 3.86 4.224 4.224 0 0 1 0 4.36 20.447 20.447 0 0 1-3.041 3.858 20.39 20.39 0 0 1-3.859 3.041 4.226 4.226 0 0 1-4.361 0 20.363 20.363 0 0 1-3.859-3.041 20.526 20.526 0 0 1-3.042-3.858 4.228 4.228 0 0 1 0-4.362 20.485 20.485 0 0 1 3.042-3.858 20.536 20.536 0 0 1 3.858-3.04 4.23 4.23 0 0 1 4.361 0 20.388 20.388 0 0 1 3.86 3.04zm-4.268-.192l-1.559 1.56-1.56 1.559-1.56 1.559-1.558 1.559 1.558 1.56 1.56 1.559 1.56 1.559 1.559 1.56v-3.118l-1.559-1.559-1.56-1.56 1.56-1.559 1.559-1.559v-3.12z"/></svg>