<svg xmlns="http://www.w3.org/2000/svg" width="43.411" height="52" viewBox="0 0 43.411 52"><g fill="#FFF"><path d="M11.607 39.232h11.607v1.857H11.607zM18.672 19.032s.902-1.159.594-1.7c-.229-.4-.684-.545-1.058-.593v-.204h.373v-.609h-.373v-.285h-.609v.285h-.374v.609h.374v.193c-.389.036-.903.168-1.151.604-.308.541.594 1.7.594 1.7h1.63z"/><path d="M39.697 0H11.839a3.714 3.714 0 0 0-3.714 3.714v3.714H3.714A3.716 3.716 0 0 0 0 11.143v37.143A3.714 3.714 0 0 0 3.714 52h27.857a3.714 3.714 0 0 0 3.714-3.714v-3.715h4.411a3.714 3.714 0 0 0 3.714-3.714V3.714A3.713 3.713 0 0 0 39.697 0zm-8.125 48.286H3.714V11.143h27.857v37.143zm8.125-7.429h-4.411V11.143a3.714 3.714 0 0 0-3.714-3.714H11.839V3.714h27.857v37.143z"/><path d="M13.592 31.702l-.571-.626 2.654-.857c-.283-1.829.954-1.798.954-1.798l.413 1.417-2.706 2.215 3.513 1.642v.007l.008-.004.008.004v-.007l3.513-1.642-2.706-2.215.413-1.417s1.236-.031.953 1.798l3.106 1.003a1.25 1.25 0 1 0-.636-1.088c0 .072.007.142.02.21l-1.099-.352 1.005-.67s.128-1.932-1.83-2.241l.026-1.521 1.288 1.314s4.071.128 4.663-3.761c.592-3.891-1.211-5.488-1.211-5.488l-3.838 4.38s.335 1.005-.953 1.134c0 0-1.159-1.443-.515-2.345.643-.901 1.519-1.057 2.189-.85l-.078-.67-1.803-.901-2.517 2.798-2.516-2.798-1.804.901-.078.67c.67-.207 1.546-.052 2.189.85.645.901-.515 2.345-.515 2.345-1.288-.129-.952-1.134-.952-1.134l-3.839-4.38s-1.804 1.597-1.211 5.488c.593 3.89 4.663 3.761 4.663 3.761l1.288-1.314.025 1.521c-1.957.309-1.828 2.241-1.828 2.241l1.005.67-1.741.56-4.255-4.672-.601.548 5.307 5.822.6-.548z"/></g></svg>